<svg width="16" height="16" viewBox="0 0 16 16" fill="none" xmlns="http://www.w3.org/2000/svg">
    <path
        d="M8.00001 2.19C11.13 2.19 13.68 4.44 13.68 7.19C13.68 9.94 11.13 12.19 8.00001 12.19C7.35811 12.2014 6.71896 12.1033 6.11001 11.9L5.36001 11.64L4.80001 12.2C4.18229 12.7769 3.5128 13.2958 2.80001 13.75C2.77711 13.7564 2.7529 13.7564 2.73001 13.75V13.69C3.25816 12.317 3.31098 10.8066 2.88001 9.4C2.54419 8.72766 2.35663 7.99107 2.33001 7.24C2.33001 4.47 4.88001 2.24 8.01001 2.24M8.00001 0.939999C4.17001 0.939999 1.07001 3.75 1.07001 7.21C1.09259 8.12558 1.31081 9.02572 1.71001 9.85C2.0266 10.9991 1.96347 12.2197 1.53001 13.33C1.44419 13.5921 1.44265 13.8746 1.5256 14.1376C1.60855 14.4007 1.77183 14.6312 1.99249 14.7967C2.21316 14.9622 2.48013 15.0544 2.7559 15.0604C3.03167 15.0663 3.30238 14.9858 3.53001 14.83C4.30117 14.3278 5.02425 13.7554 5.69001 13.12C6.43335 13.3729 7.21497 13.4947 8.00001 13.48C11.83 13.48 14.93 10.67 14.93 7.21C14.93 3.75 11.83 0.939999 8.00001 0.939999Z"
        fill="#ffffff" />
    <path
        d="M5.19999 8.45C5.64182 8.45 5.99999 8.11421 5.99999 7.7C5.99999 7.28579 5.64182 6.95 5.19999 6.95C4.75817 6.95 4.39999 7.28579 4.39999 7.7C4.39999 8.11421 4.75817 8.45 5.19999 8.45Z"
        fill="#ffffff" />
    <path
        d="M8 8.45C8.44182 8.45 8.8 8.11421 8.8 7.7C8.8 7.28579 8.44182 6.95 8 6.95C7.55817 6.95 7.2 7.28579 7.2 7.7C7.2 8.11421 7.55817 8.45 8 8.45Z"
        fill="#ffffff" />
    <path
        d="M10.8 8.45C11.2418 8.45 11.6 8.11421 11.6 7.7C11.6 7.28579 11.2418 6.95 10.8 6.95C10.3582 6.95 10 7.28579 10 7.7C10 8.11421 10.3582 8.45 10.8 8.45Z"
        fill="#ffffff" />
</svg>